M48
; DRILL file {KiCad (6.0.7-1)-1} date 2022年09月24日 土曜日 13:59:26
; FORMAT={-:-/ absolute / metric / decimal}
; #@! TF.CreationDate,2022-09-24T13:59:26+09:00
; #@! TF.GenerationSoftware,Kicad,Pcbnew,(6.0.7-1)-1
; #@! TF.FileFunction,MixedPlating,1,2
FMAT,2
METRIC
; #@! TA.AperFunction,Plated,PTH,ViaDrill
T1C0.305
; #@! TA.AperFunction,Plated,PTH,ComponentDrill
T2C0.800
; #@! TA.AperFunction,Plated,PTH,ComponentDrill
T3C0.900
; #@! TA.AperFunction,Plated,PTH,ComponentDrill
T4C1.000
%
G90
G05
T1
X-47.65Y-9.8
X-46.75Y-15.75
X-45.3Y-10.3
X-45.0Y20.0
X-45.0Y15.0
X-45.0Y-35.0
X-45.0Y-40.0
X-45.0Y-45.0
X-43.25Y-21.0
X-43.008Y-9.37
X-41.315Y2.587
X-41.0Y-26.0
X-40.0Y25.0
X-40.0Y20.0
X-40.0Y15.0
X-40.0Y10.0
X-40.0Y-15.0
X-40.0Y-40.0
X-40.0Y-45.0
X-39.174Y-21.748
X-38.95Y-32.55
X-37.85Y-31.65
X-36.106Y2.9
X-36.072Y-11.781
X-35.0Y45.0
X-35.0Y35.0
X-35.0Y20.0
X-35.0Y10.0
X-35.0Y-10.0
X-35.0Y-25.0
X-35.0Y-45.0
X-34.544Y-31.622
X-33.25Y-2.25
X-32.919Y39.767
X-32.85Y25.863
X-30.675Y2.78
X-30.456Y-0.762
X-30.0Y35.0
X-30.0Y-10.0
X-30.0Y-45.0
X-29.5Y25.0
X-29.25Y29.25
X-29.175Y0.244
X-29.0Y-19.0
X-29.0Y-22.0
X-28.146Y-0.111
X-25.0Y-16.0
X-25.0Y-35.0
X-25.0Y-40.0
X-25.0Y-45.0
X-20.0Y-30.0
X-20.0Y-35.0
X-20.0Y-40.0
X-20.0Y-45.0
X-19.5Y-16.0
X-18.0Y-18.0
X-16.0Y-20.0
X-15.0Y-11.25
X-15.0Y-30.0
X-15.0Y-35.0
X-15.0Y-40.0
X-15.0Y-45.0
X-14.0Y-16.0
X-10.0Y45.0
X-10.0Y-11.25
X-10.0Y-25.0
X-10.0Y-30.0
X-10.0Y-35.0
X-10.0Y-45.0
X-8.5Y-14.679
X-8.5Y-16.0
X-6.362Y42.873
X-5.5Y-11.25
X-5.0Y-30.0
X-5.0Y-35.0
X-5.0Y-45.0
X-3.0Y-16.0
X-0.733Y-15.0
X0.0Y-11.25
X0.0Y-20.0
X0.0Y-25.0
X0.0Y-30.0
X0.0Y-35.0
X0.0Y-45.0
X0.331Y44.407
X2.968Y-14.936
X3.0Y-16.0
X5.0Y-30.0
X5.0Y-35.0
X5.0Y-45.0
X5.188Y-21.37
X5.5Y-11.25
X8.5Y-16.0
X10.0Y-25.0
X10.0Y-30.0
X10.0Y-35.0
X10.0Y-45.0
X13.75Y-11.5
X14.0Y-16.0
X15.0Y40.0
X15.0Y-30.0
X15.0Y-35.0
X15.0Y-40.0
X15.0Y-45.0
X15.16Y-13.017
X16.0Y-22.0
X16.75Y-11.5
X17.362Y-9.109
X19.3Y-28.6
X19.5Y-16.0
X20.0Y45.0
X20.0Y35.0
X20.0Y0.0
X20.0Y-5.0
X20.0Y-10.0
X20.0Y-35.0
X20.0Y-40.0
X20.0Y-45.0
X20.25Y22.0
X20.25Y16.25
X22.118Y-12.65
X22.75Y-26.0
X23.0Y-18.0
X25.0Y45.0
X25.0Y40.0
X25.0Y30.0
X25.0Y25.0
X25.0Y10.0
X25.0Y0.0
X25.0Y-10.0
X25.0Y-16.0
X25.0Y-35.0
X25.0Y-40.0
X25.0Y-45.0
X25.494Y19.421
X26.105Y-26.879
X29.097Y16.527
X30.0Y45.0
X30.0Y40.0
X30.0Y35.0
X30.0Y25.0
X30.0Y18.25
X30.0Y5.0
X30.0Y-5.0
X30.0Y-16.0
X30.0Y-22.0
X30.0Y-26.0
X30.0Y-35.0
X30.0Y-40.0
X30.0Y-45.0
X35.0Y45.0
X35.0Y40.0
X35.0Y35.0
X35.0Y30.0
X35.0Y20.0
X35.0Y-5.0
X35.0Y-10.0
X35.0Y-25.0
X35.0Y-31.0
X35.0Y-35.25
X35.0Y-45.0
X36.575Y-0.19
X37.25Y3.25
X38.826Y-2.013
X40.0Y45.0
X40.0Y40.0
X40.0Y35.0
X40.0Y30.0
X40.0Y25.0
X40.0Y20.0
X40.0Y15.0
X40.0Y-5.0
X40.0Y-10.0
X40.0Y-15.0
X40.0Y-20.0
X40.0Y-25.0
X40.0Y-31.0
X40.0Y-40.0
X40.0Y-45.0
X45.0Y45.0
X45.0Y40.0
X45.0Y35.0
X45.0Y30.0
X45.0Y25.0
X45.0Y20.0
X45.0Y15.0
X45.0Y10.0
X45.0Y5.0
X45.0Y-5.0
X45.0Y-10.0
X45.0Y-15.0
X45.0Y-20.0
X45.0Y-25.0
X45.0Y-35.0
X45.0Y-40.0
X45.0Y-45.0
T2
X7.62Y45.72
X12.7Y45.72
X17.78Y45.72
T3
X-28.62Y46.27
X-28.62Y43.73
X-26.59Y33.05
X-26.59Y30.51
X-26.59Y27.97
X-26.59Y25.43
X-26.59Y22.89
X-26.59Y20.35
X-26.59Y17.81
X-26.59Y15.27
X-26.59Y12.73
X-26.59Y10.19
X-26.59Y7.65
X-26.59Y5.11
X-26.59Y2.57
X-26.59Y0.03
X-26.59Y-2.51
X-26.59Y-5.05
X-26.08Y46.27
X-26.08Y43.73
X-24.05Y35.59
X-24.05Y-7.59
X-23.54Y46.27
X-23.54Y43.73
X-21.51Y35.59
X-21.51Y-7.59
X-21.0Y46.27
X-21.0Y43.73
X-18.97Y35.59
X-18.97Y-7.59
X-18.46Y46.27
X-18.46Y43.73
X-16.43Y35.59
X-16.43Y-7.59
X-15.92Y46.27
X-15.92Y43.73
X-13.89Y35.59
X-13.89Y-7.59
X-13.38Y46.27
X-13.38Y43.73
X-11.35Y35.59
X-11.35Y-7.59
X-8.81Y35.59
X-8.81Y-7.59
X-6.27Y35.59
X-6.27Y-7.59
X-3.73Y35.59
X-3.73Y-7.59
X-1.19Y35.59
X-1.19Y-7.59
X1.35Y35.59
X1.35Y-7.59
X3.89Y35.59
X3.89Y-7.59
X6.43Y35.59
X6.43Y-7.59
X8.97Y35.59
X8.97Y-7.59
X11.51Y35.59
X11.51Y-7.59
X14.05Y35.59
X14.05Y-7.59
X16.59Y33.05
X16.59Y30.51
X16.59Y27.97
X16.59Y25.43
X16.59Y22.89
X16.59Y20.35
X16.59Y17.81
X16.59Y15.27
X16.59Y12.73
X16.59Y10.19
X16.59Y7.65
X16.59Y5.11
X16.59Y2.57
X16.59Y0.03
X16.59Y-2.51
X16.59Y-5.05
T4
X-4.0Y45.5
X4.0Y45.5
T0
M30
