G04 #@! TF.GenerationSoftware,KiCad,Pcbnew,(6.0.7-1)-1*
G04 #@! TF.CreationDate,2022-09-24T13:59:18+09:00*
G04 #@! TF.ProjectId,RL78Display-EB,524c3738-4469-4737-906c-61792d45422e,V1.0*
G04 #@! TF.SameCoordinates,Original*
G04 #@! TF.FileFunction,Soldermask,Top*
G04 #@! TF.FilePolarity,Negative*
%FSLAX46Y46*%
G04 Gerber Fmt 4.6, Leading zero omitted, Abs format (unit mm)*
G04 Created by KiCad (PCBNEW (6.0.7-1)-1) date 2022-09-24 13:59:18*
%MOMM*%
%LPD*%
G01*
G04 APERTURE LIST*
G04 Aperture macros list*
%AMRoundRect*
0 Rectangle with rounded corners*
0 $1 Rounding radius*
0 $2 $3 $4 $5 $6 $7 $8 $9 X,Y pos of 4 corners*
0 Add a 4 corners polygon primitive as box body*
4,1,4,$2,$3,$4,$5,$6,$7,$8,$9,$2,$3,0*
0 Add four circle primitives for the rounded corners*
1,1,$1+$1,$2,$3*
1,1,$1+$1,$4,$5*
1,1,$1+$1,$6,$7*
1,1,$1+$1,$8,$9*
0 Add four rect primitives between the rounded corners*
20,1,$1+$1,$2,$3,$4,$5,0*
20,1,$1+$1,$4,$5,$6,$7,0*
20,1,$1+$1,$6,$7,$8,$9,0*
20,1,$1+$1,$8,$9,$2,$3,0*%
%AMFreePoly0*
4,1,13,0.900000,0.500000,2.600000,0.500000,2.600000,-0.500000,0.900000,-0.500000,0.400000,-1.000000,-0.400000,-1.000000,-0.400000,-0.500000,-2.600000,-0.500000,-2.600000,0.500000,-0.400000,0.500000,-0.400000,1.000000,0.400000,1.000000,0.900000,0.500000,0.900000,0.500000,$1*%
G04 Aperture macros list end*
%ADD10RoundRect,0.200000X0.200000X-0.250000X0.200000X0.250000X-0.200000X0.250000X-0.200000X-0.250000X0*%
%ADD11RoundRect,0.200000X-0.200000X0.250000X-0.200000X-0.250000X0.200000X-0.250000X0.200000X0.250000X0*%
%ADD12RoundRect,0.200000X0.250000X0.200000X-0.250000X0.200000X-0.250000X-0.200000X0.250000X-0.200000X0*%
%ADD13RoundRect,0.200000X-0.250000X-0.200000X0.250000X-0.200000X0.250000X0.200000X-0.250000X0.200000X0*%
%ADD14C,1.400000*%
%ADD15R,1.200000X0.500000*%
%ADD16R,1.600000X3.200000*%
%ADD17R,0.400000X1.400000*%
%ADD18R,2.000000X3.000000*%
%ADD19R,0.800000X1.100000*%
%ADD20R,0.700000X1.500000*%
%ADD21FreePoly0,270.000000*%
%ADD22R,1.500000X1.500000*%
%ADD23C,1.500000*%
%ADD24R,1.800000X1.200000*%
%ADD25R,1.000000X2.000000*%
%ADD26R,1.800000X2.200000*%
%ADD27R,0.150000X1.300000*%
%ADD28R,1.400000X0.300000*%
%ADD29R,0.300000X1.400000*%
%ADD30RoundRect,0.150000X-0.150000X0.150000X-0.150000X-0.150000X0.150000X-0.150000X0.150000X0.150000X0*%
%ADD31RoundRect,0.150000X0.150000X-0.150000X0.150000X0.150000X-0.150000X0.150000X-0.150000X-0.150000X0*%
%ADD32R,0.500000X1.200000*%
%ADD33R,1.200000X0.650000*%
%ADD34R,1.200000X0.350000*%
G04 APERTURE END LIST*
D10*
X-38200000Y-7850000D03*
X-38200000Y-6150000D03*
D11*
X30200000Y-1150000D03*
X30200000Y-2850000D03*
D12*
X25850000Y-30000000D03*
X24150000Y-30000000D03*
D13*
X44150000Y-28400000D03*
X45850000Y-28400000D03*
X24150000Y-28400000D03*
X25850000Y-28400000D03*
D12*
X-43150000Y35600000D03*
X-44850000Y35600000D03*
X35850000Y-40000000D03*
X34150000Y-40000000D03*
D14*
X7620000Y45720000D03*
D13*
X-44850000Y32400000D03*
X-43150000Y32400000D03*
D12*
X-9150000Y-20000000D03*
X-10850000Y-20000000D03*
D15*
X1850000Y-14050000D03*
X1850000Y-15000000D03*
X1850000Y-15950000D03*
X4150000Y-15950000D03*
X4150000Y-15000000D03*
X4150000Y-14050000D03*
D11*
X35000000Y-1150000D03*
X35000000Y-2850000D03*
X31800000Y-1150000D03*
X31800000Y-2850000D03*
D15*
X23825000Y-14050000D03*
X23825000Y-15000000D03*
X23825000Y-15950000D03*
X26125000Y-15950000D03*
X26125000Y-15000000D03*
X26125000Y-14050000D03*
D16*
X-37700000Y25000000D03*
X-46300000Y25000000D03*
D17*
X1600000Y43000000D03*
X800000Y43000000D03*
X0Y43000000D03*
X-800000Y43000000D03*
X-1600000Y43000000D03*
D18*
X4000000Y45500000D03*
X-4000000Y45500000D03*
D19*
X44050000Y-3100000D03*
X45950000Y-3100000D03*
X45000000Y-900000D03*
D14*
X17780000Y45720000D03*
D13*
X34150000Y-18400000D03*
X35850000Y-18400000D03*
X-25850000Y-28400000D03*
X-24150000Y-28400000D03*
D10*
X28600000Y-2850000D03*
X28600000Y-1150000D03*
D20*
X-37300000Y44250000D03*
D21*
X-38800000Y42400000D03*
D20*
X-40300000Y44250000D03*
X-40300000Y40550000D03*
X-37300000Y40550000D03*
D10*
X-43000000Y-7850000D03*
X-43000000Y-6150000D03*
D13*
X-35850000Y-18400000D03*
X-34150000Y-18400000D03*
D15*
X12825000Y-14050000D03*
X12825000Y-15000000D03*
X12825000Y-15950000D03*
X15125000Y-15950000D03*
X15125000Y-15000000D03*
X15125000Y-14050000D03*
D13*
X-25850000Y-30000000D03*
X-24150000Y-30000000D03*
X-35850000Y-40000000D03*
X-34150000Y-40000000D03*
D11*
X39800000Y-1150000D03*
X39800000Y-2850000D03*
D22*
X-28620000Y43730000D03*
D23*
X-28620000Y46270000D03*
X-26080000Y43730000D03*
X-26080000Y46270000D03*
X-23540000Y43730000D03*
X-23540000Y46270000D03*
X-21000000Y43730000D03*
X-21000000Y46270000D03*
X-18460000Y43730000D03*
X-18460000Y46270000D03*
X-15920000Y43730000D03*
X-15920000Y46270000D03*
X-13380000Y43730000D03*
X-13380000Y46270000D03*
D13*
X-33350000Y4000000D03*
X-31650000Y4000000D03*
D12*
X-43150000Y43400000D03*
X-44850000Y43400000D03*
D13*
X34150000Y-38400000D03*
X35850000Y-38400000D03*
X-45850000Y-28400000D03*
X-44150000Y-28400000D03*
D15*
X-4150000Y-14050000D03*
X-4150000Y-15000000D03*
X-4150000Y-15950000D03*
X-1850000Y-15950000D03*
X-1850000Y-15000000D03*
X-1850000Y-14050000D03*
D24*
X-31800000Y15300000D03*
X-31800000Y17900000D03*
D13*
X-44850000Y2400000D03*
X-43150000Y2400000D03*
D25*
X-43250000Y8600000D03*
X-44750000Y8600000D03*
D26*
X39650000Y10600000D03*
X30350000Y10600000D03*
D27*
X37750000Y13850000D03*
X37250000Y13850000D03*
X36750000Y13850000D03*
X36250000Y13850000D03*
X35750000Y13850000D03*
X35250000Y13850000D03*
X34750000Y13850000D03*
X34250000Y13850000D03*
X33750000Y13850000D03*
X33250000Y13850000D03*
X32750000Y13850000D03*
X32250000Y13850000D03*
D15*
X-26150000Y-14050000D03*
X-26150000Y-15000000D03*
X-26150000Y-15950000D03*
X-23850000Y-15950000D03*
X-23850000Y-15000000D03*
X-23850000Y-14050000D03*
X7325000Y-14050000D03*
X7325000Y-15000000D03*
X7325000Y-15950000D03*
X9625000Y-15950000D03*
X9625000Y-15000000D03*
X9625000Y-14050000D03*
D13*
X-44850000Y45000000D03*
X-43150000Y45000000D03*
D28*
X-11800000Y18875000D03*
D22*
X-26590000Y33050000D03*
D28*
X-11800000Y18225000D03*
D23*
X-26590000Y30510000D03*
D28*
X-11800000Y17575000D03*
D23*
X-26590000Y27970000D03*
D28*
X-11800000Y16925000D03*
D23*
X-26590000Y25430000D03*
X-26590000Y22890000D03*
D28*
X-11800000Y16275000D03*
X-11800000Y15625000D03*
D23*
X-26590000Y20350000D03*
D28*
X-11800000Y14975000D03*
D23*
X-26590000Y17810000D03*
X-26590000Y15270000D03*
D28*
X-11800000Y14325000D03*
D23*
X-26590000Y12730000D03*
D28*
X-11800000Y13675000D03*
X-11800000Y13025000D03*
D23*
X-26590000Y10190000D03*
X-26590000Y7650000D03*
D28*
X-11800000Y12375000D03*
X-11800000Y11725000D03*
D23*
X-26590000Y5110000D03*
D28*
X-11800000Y11075000D03*
D23*
X-26590000Y2570000D03*
D28*
X-11850000Y10425000D03*
D23*
X-26590000Y30000D03*
X-26590000Y-2510000D03*
D28*
X-11800000Y9775000D03*
X-11800000Y9125000D03*
D23*
X-26590000Y-5050000D03*
X-24050000Y-7590000D03*
D29*
X-9875000Y7200000D03*
D23*
X-21510000Y-7590000D03*
D29*
X-9225000Y7200000D03*
D23*
X-18970000Y-7590000D03*
D29*
X-8575000Y7200000D03*
D23*
X-16430000Y-7590000D03*
D29*
X-7925000Y7200000D03*
X-7275000Y7200000D03*
D23*
X-13890000Y-7590000D03*
D29*
X-6625000Y7200000D03*
D23*
X-11350000Y-7590000D03*
D29*
X-5975000Y7200000D03*
D23*
X-8810000Y-7590000D03*
D29*
X-5325000Y7200000D03*
D23*
X-6270000Y-7590000D03*
X-3730000Y-7590000D03*
D29*
X-4675000Y7200000D03*
D23*
X-1190000Y-7590000D03*
D29*
X-4025000Y7200000D03*
X-3375000Y7200000D03*
D23*
X1350000Y-7590000D03*
X3890000Y-7590000D03*
D29*
X-2725000Y7200000D03*
D23*
X6430000Y-7590000D03*
D29*
X-2075000Y7200000D03*
D23*
X8970000Y-7590000D03*
D29*
X-1425000Y7200000D03*
D23*
X11510000Y-7590000D03*
D29*
X-775000Y7200000D03*
X-125000Y7200000D03*
D23*
X14050000Y-7590000D03*
X16590000Y-5050000D03*
D28*
X1800000Y9125000D03*
D23*
X16590000Y-2510000D03*
D28*
X1800000Y9775000D03*
D23*
X16590000Y30000D03*
D28*
X1800000Y10425000D03*
X1800000Y11075000D03*
D23*
X16590000Y2570000D03*
D28*
X1800000Y11725000D03*
D23*
X16590000Y5110000D03*
D28*
X1800000Y12375000D03*
D23*
X16590000Y7650000D03*
D28*
X1800000Y13025000D03*
D23*
X16590000Y10190000D03*
X16590000Y12730000D03*
D28*
X1800000Y13675000D03*
D23*
X16590000Y15270000D03*
D28*
X1800000Y14325000D03*
X1800000Y14975000D03*
D23*
X16590000Y17810000D03*
D28*
X1800000Y15625000D03*
D23*
X16590000Y20350000D03*
D28*
X1800000Y16275000D03*
D23*
X16590000Y22890000D03*
X16590000Y25430000D03*
D28*
X1800000Y16925000D03*
D23*
X16590000Y27970000D03*
D28*
X1800000Y17575000D03*
D23*
X16590000Y30510000D03*
D28*
X1800000Y18225000D03*
X1800000Y18875000D03*
D23*
X16590000Y33050000D03*
X14050000Y35590000D03*
D29*
X-125000Y20800000D03*
X-775000Y20800000D03*
D23*
X11510000Y35590000D03*
D29*
X-1425000Y20800000D03*
D23*
X8970000Y35590000D03*
D29*
X-2075000Y20800000D03*
D23*
X6430000Y35590000D03*
X3890000Y35590000D03*
D29*
X-2725000Y20800000D03*
X-3375000Y20800000D03*
D23*
X1350000Y35590000D03*
D29*
X-4025000Y20800000D03*
D23*
X-1190000Y35590000D03*
D29*
X-4675000Y20800000D03*
D23*
X-3730000Y35590000D03*
X-6270000Y35590000D03*
D29*
X-5325000Y20800000D03*
D23*
X-8810000Y35590000D03*
D29*
X-5975000Y20800000D03*
D23*
X-11350000Y35590000D03*
D29*
X-6625000Y20800000D03*
D23*
X-13890000Y35590000D03*
D29*
X-7275000Y20800000D03*
X-7925000Y20800000D03*
D23*
X-16430000Y35590000D03*
X-18970000Y35590000D03*
D29*
X-8575000Y20800000D03*
D23*
X-21510000Y35590000D03*
D29*
X-9225000Y20800000D03*
D23*
X-24050000Y35590000D03*
D29*
X-9875000Y20800000D03*
D12*
X-43150000Y5600000D03*
X-44850000Y5600000D03*
X-43150000Y41800000D03*
X-44850000Y41800000D03*
D11*
X-46200000Y-6150000D03*
X-46200000Y-7850000D03*
X33400000Y-1150000D03*
X33400000Y-2850000D03*
D13*
X9150000Y-18400000D03*
X10850000Y-18400000D03*
X-32850000Y26800000D03*
X-31150000Y26800000D03*
D11*
X-39800000Y-6150000D03*
X-39800000Y-7850000D03*
D12*
X-31650000Y800000D03*
X-33350000Y800000D03*
D11*
X-41400000Y-6150000D03*
X-41400000Y-7850000D03*
D13*
X-35850000Y-38400000D03*
X-34150000Y-38400000D03*
D11*
X36600000Y-1150000D03*
X36600000Y-2850000D03*
D13*
X-10850000Y-18400000D03*
X-9150000Y-18400000D03*
X-32850000Y28400000D03*
X-31150000Y28400000D03*
D15*
X-20650000Y-14050000D03*
X-20650000Y-15000000D03*
X-20650000Y-15950000D03*
X-18350000Y-15950000D03*
X-18350000Y-15000000D03*
X-18350000Y-14050000D03*
D12*
X-43150000Y40200000D03*
X-44850000Y40200000D03*
D11*
X41400000Y-1150000D03*
X41400000Y-2850000D03*
D12*
X45850000Y-30000000D03*
X44150000Y-30000000D03*
D10*
X-33400000Y-7850000D03*
X-33400000Y-6150000D03*
X-44600000Y-7850000D03*
X-44600000Y-6150000D03*
D12*
X-43150000Y4000000D03*
X-44850000Y4000000D03*
X10850000Y-20000000D03*
X9150000Y-20000000D03*
D15*
X-9650000Y-14050000D03*
X-9650000Y-15000000D03*
X-9650000Y-15950000D03*
X-7350000Y-15950000D03*
X-7350000Y-15000000D03*
X-7350000Y-14050000D03*
D12*
X-31650000Y2400000D03*
X-33350000Y2400000D03*
D30*
X-33400000Y18200000D03*
X-33400000Y17200000D03*
D12*
X-43150000Y34000000D03*
X-44850000Y34000000D03*
D31*
X-33400000Y15000000D03*
X-33400000Y16000000D03*
D15*
X-15150000Y-14050000D03*
X-15150000Y-15000000D03*
X-15150000Y-15950000D03*
X-12850000Y-15950000D03*
X-12850000Y-15000000D03*
X-12850000Y-14050000D03*
X18325000Y-14050000D03*
X18325000Y-15000000D03*
X18325000Y-15950000D03*
X20625000Y-15950000D03*
X20625000Y-15000000D03*
X20625000Y-14050000D03*
D32*
X-37850000Y35350000D03*
X-38800000Y35350000D03*
X-39750000Y35350000D03*
X-39750000Y33050000D03*
X-37850000Y33050000D03*
D12*
X-34150000Y-20000000D03*
X-35850000Y-20000000D03*
X35850000Y-20000000D03*
X34150000Y-20000000D03*
D33*
X-40150000Y6050000D03*
D34*
X-40150000Y5200000D03*
X-40150000Y4500000D03*
X-40150000Y3800000D03*
D33*
X-40150000Y2950000D03*
X-37850000Y2950000D03*
D34*
X-37850000Y3800000D03*
X-37850000Y4500000D03*
X-37850000Y5200000D03*
D33*
X-37850000Y6050000D03*
D12*
X-44150000Y-30000000D03*
X-45850000Y-30000000D03*
D10*
X-36600000Y-7850000D03*
X-36600000Y-6150000D03*
D11*
X38200000Y-1150000D03*
X38200000Y-2850000D03*
D13*
X-32850000Y30000000D03*
X-31150000Y30000000D03*
D11*
X-35000000Y-6150000D03*
X-35000000Y-7850000D03*
D14*
X12700000Y45720000D03*
D13*
X-44850000Y800000D03*
X-43150000Y800000D03*
M02*
