G04 #@! TF.GenerationSoftware,KiCad,Pcbnew,(6.0.7-1)-1*
G04 #@! TF.CreationDate,2022-09-24T13:59:18+09:00*
G04 #@! TF.ProjectId,RL78Display-EB,524c3738-4469-4737-906c-61792d45422e,V1.0*
G04 #@! TF.SameCoordinates,Original*
G04 #@! TF.FileFunction,Soldermask,Bot*
G04 #@! TF.FilePolarity,Negative*
%FSLAX46Y46*%
G04 Gerber Fmt 4.6, Leading zero omitted, Abs format (unit mm)*
G04 Created by KiCad (PCBNEW (6.0.7-1)-1) date 2022-09-24 13:59:18*
%MOMM*%
%LPD*%
G01*
G04 APERTURE LIST*
%ADD10C,1.400000*%
%ADD11R,2.000000X3.000000*%
%ADD12R,1.500000X1.500000*%
%ADD13C,1.500000*%
G04 APERTURE END LIST*
D10*
X7620000Y45720000D03*
D11*
X4000000Y45500000D03*
X-4000000Y45500000D03*
D10*
X17780000Y45720000D03*
D12*
X-28620000Y43730000D03*
D13*
X-28620000Y46270000D03*
X-26080000Y43730000D03*
X-26080000Y46270000D03*
X-23540000Y43730000D03*
X-23540000Y46270000D03*
X-21000000Y43730000D03*
X-21000000Y46270000D03*
X-18460000Y43730000D03*
X-18460000Y46270000D03*
X-15920000Y43730000D03*
X-15920000Y46270000D03*
X-13380000Y43730000D03*
X-13380000Y46270000D03*
D12*
X-26590000Y33050000D03*
D13*
X-26590000Y30510000D03*
X-26590000Y27970000D03*
X-26590000Y25430000D03*
X-26590000Y22890000D03*
X-26590000Y20350000D03*
X-26590000Y17810000D03*
X-26590000Y15270000D03*
X-26590000Y12730000D03*
X-26590000Y10190000D03*
X-26590000Y7650000D03*
X-26590000Y5110000D03*
X-26590000Y2570000D03*
X-26590000Y30000D03*
X-26590000Y-2510000D03*
X-26590000Y-5050000D03*
X-24050000Y-7590000D03*
X-21510000Y-7590000D03*
X-18970000Y-7590000D03*
X-16430000Y-7590000D03*
X-13890000Y-7590000D03*
X-11350000Y-7590000D03*
X-8810000Y-7590000D03*
X-6270000Y-7590000D03*
X-3730000Y-7590000D03*
X-1190000Y-7590000D03*
X1350000Y-7590000D03*
X3890000Y-7590000D03*
X6430000Y-7590000D03*
X8970000Y-7590000D03*
X11510000Y-7590000D03*
X14050000Y-7590000D03*
X16590000Y-5050000D03*
X16590000Y-2510000D03*
X16590000Y30000D03*
X16590000Y2570000D03*
X16590000Y5110000D03*
X16590000Y7650000D03*
X16590000Y10190000D03*
X16590000Y12730000D03*
X16590000Y15270000D03*
X16590000Y17810000D03*
X16590000Y20350000D03*
X16590000Y22890000D03*
X16590000Y25430000D03*
X16590000Y27970000D03*
X16590000Y30510000D03*
X16590000Y33050000D03*
X14050000Y35590000D03*
X11510000Y35590000D03*
X8970000Y35590000D03*
X6430000Y35590000D03*
X3890000Y35590000D03*
X1350000Y35590000D03*
X-1190000Y35590000D03*
X-3730000Y35590000D03*
X-6270000Y35590000D03*
X-8810000Y35590000D03*
X-11350000Y35590000D03*
X-13890000Y35590000D03*
X-16430000Y35590000D03*
X-18970000Y35590000D03*
X-21510000Y35590000D03*
X-24050000Y35590000D03*
D10*
X12700000Y45720000D03*
M02*
